#!OML:ASF H:\Pregnant\Project 1\Capture day 1\Session 1\femalepreg.ASF
:FULLY-SPECIFIED
:DEGREES
1816
root 2.18597 11.7782 26.7911 -58.3052 9.03399 173.761
lowerback 17.3855 0.533307 -6.01562
upperback -0.87572 -0.204805 3.45963
thorax -10.758 0.358473 7.34221
lowerneck -22.0774 0.0342087 -2.36418
upperneck 24.7242 2.23958 -3.1711
head 11.8024 0.410379 -0.406632
rclavicle -6.81831e-014 1.94809e-014
rhumerus 95.8155 -54.2441 -22.3516
rradius 27.7569
rwrist -11.5237
rhand -35.1621 -29.1508
rfingers 7.12502
rthumb -8.30117 301.032
lclavicle -6.81831e-014 1.94809e-014
lhumerus 90.2637 51.0297 37.8523
lradius 27.9877
lwrist 32.2148
lhand -49.9019 -355.522
lfingers 7.12502
lthumb -22.4949 33.1881
rfemur -119.32 -9.16934 44.6305
rtibia 52.2766
rfoot -46.738 44.4817
rtoes 42.6377
lfemur -109.182 -10.0178 11.9182
ltibia 24.3722
lfoot -35.5408 30.182
ltoes -10.2852
1817
root 2.18386 11.7777 26.7917 -58.2822 9.036 173.771
lowerback 17.3746 0.538795 -6.01337
upperback -0.881175 -0.19661 3.45796
thorax -10.7593 0.36241 7.33668
lowerneck -22.0456 0.0312894 -2.37734
upperneck 24.6923 2.23416 -3.16431
head 11.7836 0.408603 -0.402657
rclavicle -3.77691e-014 -2.82274e-014
rhumerus 95.8422 -54.2594 -22.3889
rradius 27.7679
rwrist -11.5003
rhand -35.1429 -29.1349
rfingers 7.12502
rthumb -8.28266 301.047
lclavicle -3.77691e-014 -2.82274e-014
lhumerus 90.181 51.0738 37.7461
lradius 28.0095
lwrist 32.3
lhand -49.9093 -355.477
lfingers 7.12502
lthumb -22.502 33.2324
rfemur -119.372 -9.14519 44.8288
rtibia 52.2737
rfoot -46.7669 44.5915
rtoes 42.5504
lfemur -109.213 -10.0053 11.9489
ltibia 24.381
lfoot -35.5659 30.2184
ltoes -10.2206
1818
root 2.18181 11.7771 26.7922 -58.2651 9.03298 173.782
lowerback 17.3686 0.543224 -6.00741
upperback -0.881182 -0.189319 3.45713
thorax -10.7571 0.365351 7.33015
lowerneck -22.0267 0.0295926 -2.39662
upperneck 24.6562 2.23044 -3.15194
head 11.7656 0.407556 -0.39531
rclavicle -2.0276e-014 -2.46493e-014
rhumerus 95.9001 -54.278 -22.4559
rradius 27.7669
rwrist -11.4642
rhand -35.1196 -29.1148
rfingers 7.12502
rthumb -8.26019 301.067
lclavicle -2.0276e-014 -2.46493e-014
lhumerus 90.0271 51.1429 37.5542
lradius 28.0449
lwrist 32.437
lhand -49.922 -355.423
lfingers 7.12502
lthumb -22.5142 33.2845
rfemur -119.414 -9.12038 45.0298
rtibia 52.2696
rfoot -46.7991 44.6983
rtoes 42.4659
lfemur -109.236 -9.99282 11.9807
ltibia 24.3893
lfoot -35.5934 30.2491
ltoes -10.1528
1819
root 2.17962 11.7765 26.7925 -58.2507 9.03144 173.787
lowerback 17.366 0.548619 -5.99828
upperback -0.883411 -0.180211 3.45679
thorax -10.7597 0.36928 7.32205
lowerneck -22.0038 0.0233053 -2.4182
upperneck 24.6149 2.22035 -3.13885
head 11.7448 0.403758 -0.388318
rclavicle -2.40529e-014 -2.44505e-014
rhumerus 95.9766 -54.2847 -22.5411
rradius 27.7524
rwrist -11.4033
rhand -35.0987 -29.0883
rfingers 7.12502
rthumb -8.24006 301.092
lclavicle -2.40529e-014 -2.44505e-014
lhumerus 89.8306 51.2117 37.3184
lradius 28.09
lwrist 32.61
lhand -49.9415 -355.377
lfingers 7.12502
lthumb -22.5329 33.3283
rfemur -119.456 -9.10226 45.2323
rtibia 52.2663
rfoot -46.8356 44.807
rtoes 42.38
lfemur -109.258 -9.98608 12.0147
ltibia 24.3942
lfoot -35.6178 30.2761
ltoes -10.0899
1820
root 2.17741 11.776 26.793 -58.2392 9.03327 173.791
lowerback 17.3653 0.552422 -5.99028
upperback -0.884752 -0.173634 3.45553
thorax -10.762 0.372001 7.31424
lowerneck -21.9897 0.01706 -2.44316
upperneck 24.5755 2.21112 -3.12348
head 11.7263 0.40015 -0.379794
rclavicle -3.69739e-014 -1.05356e-014
rhumerus 96.0187 -54.306 -22.5835
rradius 27.7387
rwrist -11.3717
rhand -35.0838 -29.0665
rfingers 7.12502
rthumb -8.22569 301.114
lclavicle -3.69739e-014 -1.05356e-014
lhumerus 89.6314 51.2776 37.0831
lradius 28.1384
lwrist 32.7839
lhand -49.9616 -355.342
lfingers 7.12502
lthumb -22.5523 33.3604
rfemur -119.498 -9.08818 45.4325
rtibia 52.2639
rfoot -46.8759 44.9129
rtoes 42.2968
lfemur -109.278 -9.98276 12.0463
ltibia 24.3959
lfoot -35.636 30.2974
ltoes -10.0324
1821
root 2.17514 11.7758 26.7935 -58.2299 9.0415 173.795
lowerback 17.3672 0.557161 -5.9865
upperback -0.889755 -0.16698 3.45219
thorax -10.7698 0.375336 7.30673
lowerneck -21.9795 0.00835768 -2.46323
upperneck 24.5468 2.20036 -3.1154
head 11.713 0.395208 -0.375073
rclavicle -2.06736e-014 3.65764e-014
rhumerus 96.0188 -54.3324 -22.58
rradius 27.7293
rwrist -11.3631
rhand -35.0724 -29.051
rfingers 7.12502
rthumb -8.21469 301.129
lclavicle -2.06736e-014 3.65764e-014
lhumerus 89.4727 51.3191 36.8998
lradius 28.1803
lwrist 32.9254
lhand -49.9811 -355.327
lfingers 7.12502
lthumb -22.5709 33.3738
rfemur -119.543 -9.07772 45.6275
rtibia 52.2638
rfoot -46.9088 45.0197
rtoes 42.225
lfemur -109.296 -9.9834 12.0732
ltibia 24.3944
lfoot -35.6495 30.3122
ltoes -9.97555
1822
root 2.17287 11.7757 26.7943 -58.2176 9.05344 173.799
lowerback 17.3662 0.560347 -5.98445
upperback -0.897881 -0.162732 3.44667
thorax -10.7792 0.377758 7.29839
lowerneck -21.9758 0.000606326 -2.48124
upperneck 24.5224 2.19141 -3.10946
head 11.7026 0.390834 -0.371211
rclavicle -2.20651e-014 -3.45885e-014
rhumerus 95.9762 -54.3664 -22.5301
rradius 27.728
rwrist -11.3876
rhand -35.0681 -29.0394
rfingers 7.12502
rthumb -8.21047 301.14
lclavicle -2.20651e-014 -3.45885e-014
lhumerus 89.3964 51.3326 36.813
lradius 28.2059
lwrist 33.0014
lhand -49.9915 -355.319
lfingers 7.12502
lthumb -22.5809 33.3806
rfemur -119.594 -9.06601 45.82
rtibia 52.2653
rfoot -46.9483 45.1204
rtoes 42.1491
lfemur -109.317 -9.98289 12.098
ltibia 24.3917
lfoot -35.6533 30.3294
ltoes -9.93005
